<?xml version="1.0" standalone="no"?>
<!DOCTYPE svg PUBLIC "-//W3C//DTD SVG 20010904//EN"
 "http://www.w3.org/TR/2001/REC-SVG-20010904/DTD/svg10.dtd">
<svg version="1.0" xmlns="http://www.w3.org/2000/svg"
 width="512.000000pt" height="512.000000pt" viewBox="0 0 512.000000 512.000000"
 preserveAspectRatio="xMidYMid meet">
<metadata>
Created by potrace 1.14, written by Peter Selinger 2001-2017
</metadata>
<g transform="translate(0.000000,512.000000) scale(0.100000,-0.100000)"
fill="#000000" stroke="none">
<path d="M2560 4565 l0 -554 37 -10 c20 -6 51 -25 70 -43 l33 -32 0 160 c0 87
4 153 9 146 6 -10 75 -12 337 -10 365 3 363 3 404 71 32 52 25 102 -32 247
l-51 130 51 130 c57 145 64 195 32 247 -41 68 -39 68 -404 71 -262 2 -331 0
-337 -10 -7 -10 -9 -10 -9 0 0 8 -21 12 -70 12 l-70 0 0 -555z"/>
<path d="M2704 3880 c4 -19 41 -255 82 -525 82 -530 86 -590 49 -730 -37 -142
-143 -305 -256 -392 -30 -23 -130 -89 -224 -146 -180 -111 -205 -136 -205
-205 0 -40 21 -91 47 -115 11 -9 213 -95 450 -191 237 -96 450 -187 474 -202
160 -100 251 -306 220 -495 -25 -157 -129 -301 -262 -366 -35 -17 -318 -108
-629 -203 -311 -95 -664 -203 -785 -241 l-220 -68 1778 0 c1621 -1 1782 0
1813 15 45 22 76 66 81 118 5 38 -27 120 -313 802 -174 417 -323 768 -330 779
-8 12 -163 126 -346 255 -183 128 -335 237 -338 241 -3 4 -63 158 -135 343
l-130 337 -369 457 c-202 251 -388 482 -413 512 l-45 54 6 -34z"/>
<path d="M2256 3687 l-139 -200 -253 -124 c-163 -79 -261 -133 -276 -151 -13
-15 -135 -260 -271 -543 l-248 -514 -122 -74 c-412 -251 -514 -315 -529 -336
-27 -36 -421 -1583 -413 -1622 8 -42 50 -92 92 -109 22 -10 77 -14 172 -14
l140 0 738 226 c406 124 974 298 1263 386 372 113 535 167 558 185 96 72 107
203 26 292 -30 35 -76 55 -466 212 -273 109 -454 188 -490 212 -185 123 -243
400 -125 596 46 77 103 123 288 235 177 108 261 178 302 254 32 60 57 151 57
212 0 41 -155 1069 -162 1075 -2 1 -66 -87 -142 -198z"/>
</g>
</svg>
